<svg fill="none" height="33" viewBox="0 0 32 33" width="32" xmlns="http://www.w3.org/2000/svg">
	<path d="M22.6667 3.5415H9.33341C5.65152 3.5415 2.66675 6.52627 2.66675 10.2082V23.5415C2.66675 27.2234 5.65152 30.2082 9.33341 30.2082H22.6667C26.3486 30.2082 29.3334 27.2234 29.3334 23.5415V10.2082C29.3334 6.52627 26.3486 3.5415 22.6667 3.5415Z" stroke="#093542" stroke-linecap="round" stroke-linejoin="round" stroke-width="2.5" />
	<path d="M21.3334 16.0349C21.4979 17.1446 21.3084 18.2779 20.7917 19.2736C20.275 20.2693 19.4575 21.0768 18.4555 21.5811C17.4535 22.0855 16.3179 22.261 15.2104 22.0828C14.1029 21.9046 13.0797 21.3817 12.2865 20.5885C11.4932 19.7952 10.9703 18.7721 10.7921 17.6645C10.6139 16.557 10.7894 15.4214 11.2938 14.4194C11.7981 13.4174 12.6056 12.5999 13.6013 12.0832C14.5971 11.5666 15.7304 11.377 16.84 11.5416C17.9719 11.7094 19.0198 12.2369 19.8289 13.046C20.6381 13.8551 21.1655 14.903 21.3334 16.0349Z" stroke="#093542" stroke-linecap="round" stroke-linejoin="round" stroke-width="2.5" />
	<path d="M23.3333 9.5415H23.3466" stroke="#093542" stroke-linecap="round" stroke-linejoin="round" stroke-width="2.5" />
</svg>