<svg fill="none" height="33" viewBox="0 0 32 33" width="32" xmlns="http://www.w3.org/2000/svg">
	<path d="M28.7349 10.1548C28.4799 8.74727 27.2649 7.72227 25.8549 7.40227C23.7449 6.95477 19.8399 6.63477 15.6149 6.63477C11.3924 6.63477 7.42492 6.95477 5.31242 7.40227C3.90492 7.72227 2.68742 8.68227 2.43242 10.1548C2.17492 11.7548 1.91992 13.9948 1.91992 16.8748C1.91992 19.7548 2.17492 21.9948 2.49492 23.5948C2.75242 25.0023 3.96742 26.0273 5.37492 26.3473C7.61492 26.7948 11.4549 27.1148 15.6799 27.1148C19.9049 27.1148 23.7449 26.7948 25.9849 26.3473C27.3924 26.0273 28.6074 25.0673 28.8649 23.5948C29.1199 21.9948 29.4399 19.6898 29.5049 16.8748C29.3749 13.9948 29.0549 11.7548 28.7349 10.1548ZM12.1599 21.3548V12.3948L19.9674 16.8748L12.1599 21.3548Z" fill="#093542" />
</svg>