<svg fill="none" height="33" viewBox="0 0 32 33" width="32" xmlns="http://www.w3.org/2000/svg">
	<path d="M25.5999 5.1416H6.39993C5.22127 5.1416 4.2666 6.09627 4.2666 7.27493V26.4749C4.2666 27.6536 5.22127 28.6083 6.39993 28.6083H25.5999C26.7786 28.6083 27.7333 27.6536 27.7333 26.4749V7.27493C27.7333 6.09627 26.7786 5.1416 25.5999 5.1416ZM11.6842 24.3416H8.53753V14.2168H11.6842V24.3416ZM10.0789 12.7693C9.06447 12.7693 8.2442 11.9469 8.2442 10.9347C8.2442 9.9224 9.06554 9.10107 10.0789 9.10107C11.0901 9.10107 11.9125 9.92347 11.9125 10.9347C11.9125 11.9469 11.0901 12.7693 10.0789 12.7693ZM23.4709 24.3416H20.3263V19.4179C20.3263 18.2435 20.305 16.7331 18.6911 16.7331C17.0538 16.7331 16.8021 18.012 16.8021 19.3325V24.3416H13.6575V14.2168H16.6762V15.6003H16.7189C17.1391 14.8045 18.1653 13.9651 19.6959 13.9651C22.8821 13.9651 23.4709 16.0621 23.4709 18.7885V24.3416Z" fill="#093542" />
</svg>